<?xml version="1.0" encoding="UTF-8"?>
<svg width="800" height="400" viewBox="0 0 800 400" xmlns="http://www.w3.org/2000/svg" role="img" aria-labelledby="title desc">
  <title id="title">Dart thrower hero</title>
  <desc id="desc">A dynamic, gradient-styled silhouette of a player releasing a dart toward a glowing dartboard, matched to the app's premium purple-gold-blue theme.</desc>

  <defs>
    <!-- Theme gradients -->
    <linearGradient id="bg-grad" x1="0" y1="0" x2="1" y2="1">
      <stop offset="0%" stop-color="#2a174d"/>
      <stop offset="55%" stop-color="#f2b233"/>
      <stop offset="100%" stop-color="#2563eb"/>
    </linearGradient>
    <radialGradient id="board-glow" cx="50%" cy="50%" r="60%">
      <stop offset="0%" stop-color="#ff7ac4" stop-opacity="0.9"/>
      <stop offset="70%" stop-color="#ff7ac4" stop-opacity="0.15"/>
      <stop offset="100%" stop-color="#ff7ac4" stop-opacity="0"/>
    </radialGradient>
    <linearGradient id="figure-grad" x1="0" y1="0" x2="0" y2="1">
      <stop offset="0%" stop-color="#7c3aed"/>
      <stop offset="100%" stop-color="#f59e0b"/>
    </linearGradient>
    <linearGradient id="arm-grad" x1="0" y1="0" x2="1" y2="0">
      <stop offset="0%" stop-color="#f59e0b"/>
      <stop offset="100%" stop-color="#f97316"/>
    </linearGradient>
    <filter id="blur-soft" x="-20%" y="-20%" width="140%" height="140%">
      <feGaussianBlur stdDeviation="8"/>
    </filter>
    <filter id="drop" x="-20%" y="-20%" width="140%" height="140%">
      <feDropShadow dx="0" dy="6" stdDeviation="8" flood-color="#000" flood-opacity="0.35"/>
    </filter>
    <!-- Subtle noise overlay for richness -->
    <filter id="noise" x="0" y="0" width="100%" height="100%">
      <feTurbulence type="fractalNoise" baseFrequency="0.9" numOctaves="2" stitchTiles="stitch" result="n"/>
      <feColorMatrix in="n" type="saturate" values="0"/>
      <feComponentTransfer>
        <feFuncA type="table" tableValues="0 0 0.02 0"/>
      </feComponentTransfer>
    </filter>
  </defs>

  <!-- Soft background wash -->
  <rect width="800" height="400" fill="url(#bg-grad)" opacity="0.18"/>
  <ellipse cx="620" cy="110" rx="120" ry="120" fill="url(#board-glow)" filter="url(#blur-soft)"/>
  <ellipse cx="180" cy="320" rx="160" ry="26" fill="#000" opacity="0.15"/>

  <!-- Dartboard (right) -->
  <g transform="translate(620,110)">
    <circle r="74" fill="#0b0b0f" filter="url(#drop)"/>
    <circle r="64" fill="none" stroke="#d1d5db" stroke-width="3"/>
    <circle r="50" fill="none" stroke="#22c55e" stroke-width="3"/>
    <circle r="36" fill="none" stroke="#ef4444" stroke-width="3"/>
    <circle r="22" fill="none" stroke="#22c55e" stroke-width="3"/>
    <circle r="7"  fill="#ef4444"/>
    <!-- minimal wedge ticks for a hint of segments -->
    <g stroke="#374151" stroke-width="2" opacity="0.7">
      <line y1="-64" y2="-50"/>
      <line transform="rotate(18)"  y1="-64" y2="-50"/>
      <line transform="rotate(36)"  y1="-64" y2="-50"/>
      <line transform="rotate(54)"  y1="-64" y2="-50"/>
      <line transform="rotate(72)"  y1="-64" y2="-50"/>
      <line transform="rotate(90)"  y1="-64" y2="-50"/>
      <line transform="rotate(108)" y1="-64" y2="-50"/>
      <line transform="rotate(126)" y1="-64" y2="-50"/>
      <line transform="rotate(144)" y1="-64" y2="-50"/>
      <line transform="rotate(162)" y1="-64" y2="-50"/>
      <line transform="rotate(180)" y1="-64" y2="-50"/>
    </g>
  </g>

  <!-- Player silhouette (right-handed) -->
  <g transform="translate(120,265)">
    <!-- Torso/shoulder block -->
    <path d="M58 0 C 38 -30, 42 -78, 72 -102 C 96 -122, 138 -118, 156 -96 C 170 -78, 168 -56, 162 -42 L 165 -18 C 167 -6, 160 6, 148 10 L 76 22 C 64 24, 56 16, 56 6 L 58 0 Z" fill="url(#figure-grad)"/>
    <!-- Head -->
    <circle cx="124" cy="-122" r="18" fill="#e6e9ef"/>
    <!-- Back arm -->
    <path d="M78 -6 L 42 20 C 32 28, 20 26, 15 18 C 10 10, 12 -2, 20 -6 L 66 -36" fill="none" stroke="#a78bfa" stroke-width="10" stroke-linecap="round"/>
    <!-- Throwing arm (gradient stroke) -->
    <path d="M162 -42 C 190 -50, 214 -54, 244 -55" fill="none" stroke="url(#arm-grad)" stroke-width="12" stroke-linecap="round"/>
    <!-- Hand -->
    <circle cx="244" cy="-55" r="6.5" fill="#f59e0b"/>
    <!-- Dart with motion trail -->
    <g transform="translate(262,-57)">
      <path d="M-48 0 L 0 0" stroke="#60a5fa" stroke-width="3" stroke-linecap="round" opacity="0.6"/>
      <rect x="0" y="-2" width="28" height="4" rx="2" fill="#60a5fa"/>
      <polygon points="28,0 40,-6 40,6" fill="#ef4444"/>
      <polygon points="0,0 -9,-6 -9,6" fill="#93c5fd"/>
    </g>
  </g>

  <!-- Soft texture overlay -->
  <rect width="800" height="400" fill="#000" opacity="0.06" filter="url(#noise)"/>
</svg>
